#!OML:ASF F:\VICON\USERDATA\INSTALL\rory3\rory3.ASF
:FULLY-SPECIFIED
:DEGREES
2979
root -6.50567 18.0603 0.994589 -904.3 -151.456 904.743
lowerback 8.93459 0.510455 -4.55142
upperback -5.57176 -0.0485076 -0.881587
thorax -11.05 0.270725 1.61738
lowerneck -19.716 -6.8816 -12.6598
upperneck -9.49656 -6.47642 10.814
head 0.985882 -2.70016 4.95331
rclavicle 6.19835e-014 -2.5345e-015
rhumerus 91.5892 -27.991 -44.501
rradius 34.7912
rwrist -7.53701
rhand -37.2186 -5.75872
rfingers 7.12502
rthumb -10.2855 -35.4872
lclavicle 6.19835e-014 -2.5345e-015
lhumerus 83.8056 34.4152 25.318
lradius 26.9712
lwrist -8.27789
lhand -17.5622 29.5016
lfingers 7.12502
lthumb 8.69279 59.3027
rfemur -11.3944 -1.76769 14.7074
rtibia 44.7726
rfoot -12.7606 -6.13599
rtoes -9.29363
lfemur -2.64807 -6.79047 -17.5056
ltibia 34.4044
lfoot -12.2479 -3.8294
ltoes -16.3011
2980
root -6.5273 18.1224 0.98527 -904.339 -151.551 904.461
lowerback 8.82793 0.52781 -4.28356
upperback -5.54316 0.0217263 -0.857389
thorax -10.9544 0.283452 1.4809
lowerneck -20.2246 -6.93767 -13.1456
upperneck -8.57125 -6.42105 11.5113
head 1.38204 -2.62887 5.232
rclavicle -2.41275e-014 1.37658e-014
rhumerus 91.8156 -27.9043 -44.5698
rradius 34.5056
rwrist -6.93871
rhand -37.112 -5.67946
rfingers 7.12502
rthumb -10.1827 -35.413
lclavicle -2.41275e-014 1.37658e-014
lhumerus 84.3313 34.2527 25.921
lradius 26.7049
lwrist -9.65772
lhand -17.4143 29.2987
lfingers 7.12502
lthumb 8.83555 59.0937
rfemur -10.9926 -1.59913 15.04
rtibia 44.2347
rfoot -11.9292 -6.53696
rtoes -8.46645
lfemur -2.25712 -6.9763 -17.4623
ltibia 34.2503
lfoot -11.1739 -5.90995
ltoes -17.4051
2981
root -6.55194 18.1865 0.974884 -904.416 -151.516 904.498
lowerback 8.63476 0.598231 -4.39036
upperback -5.56892 0.106209 -0.909362
thorax -10.8735 0.328092 1.47004
lowerneck -19.9036 -6.93267 -12.634
upperneck -8.83811 -6.54712 10.831
head 1.21859 -2.72885 4.93244
rclavicle 6.93976e-014 3.00413e-014
rhumerus 92.0214 -27.7123 -44.6945
rradius 34.14
rwrist -6.15034
rhand -37.2233 -5.67228
rfingers 7.12502
rthumb -10.2901 -35.4006
lclavicle 6.93976e-014 3.00413e-014
lhumerus 84.7771 34.0595 26.3273
lradius 26.5037
lwrist -10.9493
lhand -17.6332 28.8018
lfingers 7.12502
lthumb 8.62431 58.6056
rfemur -10.8317 -1.26772 15.0799
rtibia 43.797
rfoot -11.1146 -6.90865
rtoes -6.77573
lfemur -1.93163 -6.97006 -17.6906
ltibia 33.9514
lfoot -9.76012 -7.84815
ltoes -18.9416
2982
root -6.57198 18.2474 0.966707 -904.471 -151.423 904.449
lowerback 8.42308 0.647058 -4.35006
upperback -5.63342 0.182996 -0.942842
thorax -10.8224 0.359983 1.39819
lowerneck -19.9299 -6.84582 -12.5692
upperneck -8.42356 -6.45829 10.8288
head 1.3366 -2.68522 4.9214
rclavicle 3.20043e-014 4.27387e-015
rhumerus 92.0943 -27.4945 -44.5567
rradius 33.7238
rwrist -5.55144
rhand -37.1409 -5.99972
rfingers 7.12502
rthumb -10.2106 -35.7319
lclavicle 3.20043e-014 4.27387e-015
lhumerus 84.5774 33.9984 25.7915
lradius 26.4782
lwrist -11.4786
lhand -17.8923 28.6803
lfingers 7.12502
lthumb 8.37428 58.4943
rfemur -10.7157 -0.917653 15.2019
rtibia 43.4612
rfoot -10.1177 -7.34964
rtoes -5.86995
lfemur -1.60684 -6.95841 -17.8617
ltibia 33.5531
lfoot -7.89519 -9.55791
ltoes -19.8351
2983
root -6.59071 18.3095 0.963719 -904.448 -151.36 904.424
lowerback 8.14204 0.687171 -4.31447
upperback -5.77564 0.250554 -0.949899
thorax -10.8163 0.390583 1.35915
lowerneck -19.6029 -6.94113 -13.8633
upperneck -8.18472 -6.3695 12.2622
head 1.47128 -2.58138 5.59393
rclavicle -9.49041e-015 2.68981e-015
rhumerus 91.8829 -27.4563 -43.8843
rradius 33.3954
rwrist -5.44677
rhand -37.1606 -6.31604
rfingers 7.12502
rthumb -10.2296 -36.0473
lclavicle -9.49041e-015 2.68981e-015
lhumerus 84.2462 33.9093 25.2042
lradius 26.5504
lwrist -11.8167
lhand -17.7377 28.5676
lfingers 7.12502
lthumb 8.5235 58.3756
rfemur -10.7036 -0.666409 15.2583
rtibia 43.1697
rfoot -9.09513 -7.71861
rtoes -5.75574
lfemur -1.38736 -6.98035 -18.0758
ltibia 33.1445
lfoot -5.72242 -10.9215
ltoes -20.0352
2984
root -6.60878 18.3734 0.96096 -904.366 -151.307 904.413
lowerback 7.8542 0.740847 -4.3214
upperback -5.91708 0.330052 -0.967437
thorax -10.8065 0.429496 1.33106
lowerneck -18.1927 -6.93336 -15.2508
upperneck -9.3233 -6.21274 14.2631
head 1.07263 -2.47068 6.51833
rclavicle 3.18677e-015 -1.07344e-014
rhumerus 91.7262 -27.4493 -43.3403
rradius 33.031
rwrist -5.02961
rhand -37.4622 -6.35587
rfingers 7.12502
rthumb -10.5206 -36.0726
lclavicle 3.18677e-015 -1.07344e-014
lhumerus 84.6321 33.6662 25.6293
lradius 26.4729
lwrist -12.9557
lhand -17.5059 28.0503
lfingers 7.12502
lthumb 8.74715 57.8491
rfemur -10.7783 -0.430469 15.2902
rtibia 42.8749
rfoot -8.15235 -8.26101
rtoes -4.4233
lfemur -1.26483 -6.85342 -18.2764
ltibia 32.8122
lfoot -3.28472 -12.1109
ltoes -20.0158
2985
root -6.62663 18.4366 0.95679 -904.316 -151.306 904.455
lowerback 7.57124 0.773628 -4.37031
upperback -5.97586 0.373623 -1.04232
thorax -10.7048 0.44921 1.27233
lowerneck -20.4141 -7.04563 -14.1079
upperneck -6.77652 -6.42369 12.6542
head 2.0451 -2.56479 5.72051
rclavicle -4.16578e-014 1.02623e-014
rhumerus 91.7432 -27.5556 -43.041
rradius 32.6406
rwrist -4.44218
rhand -37.3908 -6.60875
rfingers 7.12502
rthumb -10.4517 -36.3289
lclavicle -4.16578e-014 1.02623e-014
lhumerus 85.0859 33.5387 25.9566
lradius 26.4273
lwrist -13.9479
lhand -17.3847 27.4023
lfingers 7.12502
lthumb 8.86415 57.1962
rfemur -10.8743 -0.27432 15.2844
rtibia 42.5927
rfoot -7.22967 -9.02849
rtoes -2.56269
lfemur -1.23152 -6.57056 -18.5037
ltibia 32.5618
lfoot -0.801588 -13.0601
ltoes -20.0839
2986
root -6.64417 18.5006 0.949194 -904.35 -151.4 904.628
lowerback 7.35465 0.746677 -4.54254
upperback -6.03179 0.313819 -1.16171
thorax -10.6361 0.426739 1.2517
lowerneck -19.3548 -7.01674 -12.9455
upperneck -8.1469 -6.68097 11.201
head 1.39795 -2.78878 5.08262
rclavicle -2.29845e-014 3.47873e-015
rhumerus 91.7544 -27.7566 -42.667
rradius 32.3007
rwrist -4.20074
rhand -37.3578 -6.80615
rfingers 7.12502
rthumb -10.4198 -36.528
lclavicle -2.29845e-014 3.47873e-015
lhumerus 84.6616 33.6954 24.8345
lradius 26.5972
lwrist -13.5323
lhand -17.2232 27.0517
lfingers 7.12502
lthumb 9.01999 56.8389
rfemur -10.9476 -0.20711 15.1552
rtibia 42.3363
rfoot -6.3211 -9.72469
rtoes -1.6261
lfemur -1.19345 -6.23763 -18.8521
ltibia 32.3728
lfoot 1.36618 -13.7941
ltoes -21.3089
2987
root -6.66251 18.5713 0.939336 -904.208 -151.554 905.055
lowerback 6.93578 0.706433 -5.0237
upperback -6.24962 0.201223 -1.31491
thorax -10.6297 0.4028 1.37533
lowerneck -18.779 -6.98711 -13.8506
upperneck -8.54789 -6.51846 12.8066
head 1.30041 -2.66586 5.7695
rclavicle 3.46631e-014 1.63997e-014
rhumerus 91.5564 -28.0171 -42.1675
rradius 32.1424
rwrist -4.26172
rhand -37.2962 -7.24843
rfingers 7.12502
rthumb -10.3604 -36.9732
lclavicle 3.46631e-014 1.63997e-014
lhumerus 84.3956 33.6517 24.1421
lradius 26.7502
lwrist -13.3106
lhand -16.7456 26.577
lfingers 7.12502
lthumb 9.48086 56.3438
rfemur -11.3603 -0.236726 14.7363
rtibia 42.0957
rfoot -5.31381 -10.3298
rtoes -1.30451
lfemur -1.41961 -5.92764 -19.4067
ltibia 32.2421
lfoot 3.63461 -14.44
ltoes -21.9363
